<?xml version="1.0" encoding="UTF-8"?>
<svg id="Layer_2" xmlns="http://www.w3.org/2000/svg" version="1.1" viewBox="0 0 2576.6 527.6">
  <!-- Generator: Adobe Illustrator 30.1.0, SVG Export Plug-In . SVG Version: 2.1.1 Build 136)  -->
  <defs>
    <style>
      .st0 {
        fill: #1b465b;
      }

      .st1 {
        fill: none;
        stroke: #1b465b;
        stroke-miterlimit: 10;
        stroke-width: 26px;
      }

      .st2 {
        fill: #3686af;
      }

      .st3 {
        fill: #fdfdfc;
      }
    </style>
  </defs>
  <g id="Layer_1-2">
    <g>
      <path class="st1" d="M794.3,428.9c-116.1-39.6-226.5-129.4-299.8-228.3-6.4-8.6-11.5-15.5-22.8-17.8-12.9-2.6-26.4-3.9-40.1-3-21.5-10.2-43.6-9-65.2-1-5.9,2.2-46.1-2.7-57.1,11.9-51.2,67.5-101.6,120.1-171.2,169.6-30.2,21.5-61.6,38.8-94.4,56.1-4.6,2.4-9.8,5.6-14.3,5.5-21.4-41.7-20.6-88.8-4.8-132.5,23.3-64,78-109,145.8-118.8C198.9,49,326.3-17.4,442.1,26.7c19.4,9.2,36,18.8,53,31.2,13.3,9.7,22.2,23.3,32.8,36.2,6.9,8.3,46.8-22.5,109.2,1.8,53,20.6,78.4,55.8,91,109.6,20.4,13.1,39.1,25.2,54.1,43.9,41.5,51.7,44.5,122.8,12,179.5h0Z"/>
      <path class="st0" d="M808.5,433.2c-28.9,61.5-94,94.1-160.9,93.9l-261.6-.7c13.6-9.4,28.8-16.5,44-25.5,53-31.5,97.3-71.1,129.1-126.6,27.6,29.3,60.1,49.7,98,62,31.7,10.3,63.6,20.5,99.8,13.5-30.2-14.3-56.7-27.4-83.4-45.1-42-28-81.7-56.4-118.5-94.3-29.2,29.5-59.3,54.6-92.6,77.7l-25.5,17.7c-73.9,49-153.9,87.6-237.8,116.9-2.9,1-4.9.8-4.6,3.3-32.7,2.8-63.7-.7-92.5-14.6-39.2-19-72.8-49.9-88.4-89.5,4.7,0,8.8-2.6,13.6-5.1,33.9-18,66.5-35.9,97.7-58.1,72.1-51.2,124.2-105.7,177.2-175.5,11.4-15.1,53-10,59.1-12.2,22.4-8.3,45.3-9.5,67.5,1.1,14.1-.9,28.2.4,41.5,3.1,11.7,2.4,17,9.5,23.6,18.4,75.9,102.3,194.4,198.7,314.6,239.7h0ZM243.2,303.3c-35.4,29.9-68.7,61.2-108.1,87.8-24.3,16.4-47.5,30.8-74.7,45.3,27.5,33.2,77.1,61.1,118.1,56.2,25.5-3.1,106.4-38.2,131.6-51.2,40.7-21,79.3-42.4,116.9-68.6,36.7-25.5,71.6-51.5,101.8-83.1,3-.6,2.3-1.2,1.6-2.6-1.3-2.6-3.3-3.1-5.1-4.9-20.8-20.6-38.5-43.2-56.1-66.6-15.5-20.5-29.4-2.9-56.1-15.2-12.4-5.7-25.6-5.8-37.8.1-21.8,10.5-44.1-.7-50.6,7.4-20.3,25.5-39.8,50.2-62.6,73.4-7.1,7.3-13.9,14.1-19.1,21.8h0Z"/>
      <path class="st2" d="M386,526.4l-171.5,1.2c-7.3,0-14.4,0-20.1-1.7-.2-2.5,1.8-2.3,4.6-3.3,83.9-29.3,163.9-67.8,237.8-116.9l25.5-17.7c33.3-23.1,63.4-48.2,92.6-77.7,36.9,37.9,76.6,66.3,118.5,94.3,26.7,17.8,53.2,30.9,83.4,45.1-36.2,7-68.2-3.1-99.8-13.5-37.9-12.4-70.4-32.7-98-62-31.8,55.4-76.1,95.1-129.1,126.6-15.2,9-30.4,16.1-44,25.5h0Z"/>
      <path class="st2" d="M528.9,289.8c-30.2,31.6-65.1,57.5-101.8,83.1-37.6,26.2-76.2,47.6-116.9,68.6-25.2,13-106.1,48.1-131.6,51.2-41,4.9-90.6-23-118.1-56.2,27.2-14.5,50.4-28.9,74.6-45.3,39.4-26.7,72.7-57.9,108.1-87.8,21.6-18.2,52.8-25.7,74.8-47.5,1.4,19.8-10.3,28.5-11.7,45,6.1-1.6,8.4-7.7,12.7-11.2l36.5-30c.2,31.1-13.1,63.9-12.9,88.3l49.3-92.2,33.9,62.9,10.9-63.9,40.5,36.6-10.6-42.4,62.2,41h0Z"/>
      <path class="st3" d="M528.9,289.8l-62.2-41,10.6,42.5-40.5-36.6-10.9,63.9-33.9-62.9-49.3,92.2c-.3-24.4,13.1-57.1,12.9-88.3l-36.5,30c-4.3,3.6-6.6,9.7-12.7,11.2,1.4-16.5,13-25.2,11.7-45-22,21.8-53.2,29.2-74.8,47.5,5.2-7.8,11.9-14.6,19.1-21.8,22.8-23.2,42.2-47.9,62.6-73.4,6.5-8.1,28.8,3.1,50.6-7.4,12.2-5.9,25.4-5.8,37.8-.1,26.7,12.3,40.6-5.3,56.1,15.2,17.6,23.3,35.3,45.9,56.1,66.6,1.8,1.8,3.8,2.2,5.1,4.9.7,1.3,1.4,2-1.6,2.6h0Z"/>
    </g>
    <g>
      <g>
        <path class="st0" d="M923,457.8c3.2-6.4,7.9-11.4,13.9-14.9s13-5.3,20.9-5.3,16.9,2.5,23.1,7.5,10.1,11.8,11.7,20.4h-10.3c-1.5-5.8-4.5-10.3-8.8-13.5-4.4-3.2-9.8-4.9-16.1-4.9s-10.7,1.4-15.1,4.2c-4.4,2.8-7.7,6.6-10,11.6-2.3,5-3.5,10.6-3.5,17s1.2,12,3.5,17c2.3,5,5.7,8.9,10,11.6,4.4,2.8,9.4,4.2,15.1,4.2s11.8-1.6,16-4.8c4.3-3.2,7.2-7.7,8.8-13.6h10.3c-1.6,8.6-5.5,15.5-11.6,20.4-6.1,5-13.8,7.5-23.1,7.5s-14.9-1.8-20.9-5.3c-6-3.5-10.7-8.5-13.9-14.9-3.2-6.4-4.9-13.8-4.9-22.2s1.6-15.7,4.9-22.1h0Z"/>
        <path class="st0" d="M1005.5,521.5v-83.2h10.3v73.7h37.9v9.5h-48.2Z"/>
        <path class="st0" d="M1128.4,501.7c-3.4,6.4-8.1,11.5-14.1,15.1-6,3.6-12.9,5.5-20.6,5.5s-14.5-1.8-20.6-5.5-10.7-8.7-14.1-15.1c-3.4-6.4-5.1-13.7-5.1-21.7s1.7-15.3,5.1-21.7c3.4-6.4,8.1-11.5,14.1-15.1,6-3.6,12.9-5.5,20.6-5.5s14.5,1.8,20.6,5.5c6,3.6,10.7,8.7,14.1,15.1,3.4,6.4,5.1,13.7,5.1,21.7s-1.7,15.3-5.1,21.7h0ZM1068.4,496.9c2.4,5,5.9,8.8,10.3,11.6,4.4,2.8,9.4,4.2,15.2,4.2s10.8-1.4,15.2-4.2,7.8-6.7,10.3-11.6c2.4-5,3.7-10.6,3.7-16.9s-1.2-12-3.7-16.9c-2.5-5-5.9-8.8-10.3-11.6-4.4-2.8-9.4-4.2-15.2-4.2s-10.8,1.4-15.2,4.2-7.8,6.7-10.3,11.6c-2.5,5-3.7,10.6-3.7,16.9s1.2,12,3.7,16.9h0Z"/>
        <path class="st0" d="M1156.4,438.4v48.2c0,17.4,7.1,26.1,21.3,26.1s21.5-8.7,21.5-26.1v-48.2h10.3v47.6c0,11.9-2.7,20.9-8.1,27s-13.3,9.2-23.7,9.2-18.2-3.1-23.6-9.2-8-15.1-8-27v-47.6h10.3,0Z"/>
        <path class="st0" d="M1225.2,438.4h24.6c8.6,0,16,1.7,22.3,5.2s11.1,8.3,14.5,14.6,5.1,13.5,5.1,21.9-1.7,15.5-5.1,21.8c-3.4,6.3-8.2,11.2-14.5,14.6-6.3,3.5-13.7,5.2-22.3,5.2h-24.6v-83.2ZM1249.8,512c9.9,0,17.6-2.9,23.1-8.7,5.5-5.8,8.2-13.6,8.2-23.4s-2.7-17.7-8.1-23.5c-5.4-5.7-13.1-8.6-23.1-8.6h-14.3v64.2h14.3Z"/>
        <path class="st0" d="M1335.8,438.2h10.3v36.2h43v-36.2h10.3v83.3h-10.3v-37.5h-43v37.5h-10.3v-83.3h0Z"/>
        <path class="st0" d="M1447.5,438.4c5.5,0,10.3,1,14.5,3.1s7.4,5.1,9.7,8.9,3.4,8.3,3.4,13.5-1.6,10.8-4.8,15c-3.2,4.2-7.5,7.1-12.9,8.6l18.7,34h-11.6l-17.2-32h-21.3v32h-10.3v-83.2h31.8,0ZM1426,480.1h20.7c5.5,0,9.8-1.5,13.1-4.4,3.2-2.9,4.9-6.9,4.9-11.8s-1.6-8.7-4.9-11.6c-3.2-2.9-7.6-4.4-12.9-4.4h-20.8v32.2Z"/>
        <path class="st0" d="M1593.4,512.9v8.7h-9c-2.8,0-5.2-.3-7.3-1-2.1-.7-3.9-1.8-5.3-3.5l-4.8-5.4c-6.8,7.1-14.6,10.6-23.4,10.6s-13.9-1.9-18.8-5.7-7.4-9.1-7.4-15.9,1.5-9.2,4.5-13.4c3-4.2,7.7-7.6,14.2-10.4-3.1-3.7-5.2-7-6.4-9.7-1.2-2.8-1.8-5.9-1.8-9.5s1-7.1,3.1-10.2c2.1-3,4.9-5.4,8.4-7.2,3.6-1.7,7.5-2.6,11.9-2.6s7.1.8,10,2.4c3,1.6,5.3,3.8,7,6.5,1.7,2.8,2.6,5.9,2.6,9.3,0,4.9-1.6,9.3-4.7,13.2-3.1,3.9-8.3,7.2-15.5,10.1l16.6,18.5,14-21h10.3l-18.4,27.7,4.6,5.2c1.1,1.3,2.2,2.1,3.4,2.6,1.2.5,2.6.7,4.2.7h7.8ZM1561.4,505.2l-19.4-21.6-.8-.8c-5.1,2.5-8.6,5-10.6,7.5-2,2.5-3,5.7-3,9.4s1.5,7.8,4.5,10.2c3,2.5,7,3.7,11.9,3.7s12.3-2.8,17.5-8.3h0ZM1541.5,449c-2.3,2.1-3.4,4.9-3.4,8.2s.5,5.4,1.6,7.6c1.1,2.2,3,5,5.9,8.3,10.4-4.1,15.6-9.8,15.6-17.1s-1-5.5-2.9-7.4c-1.9-1.9-4.5-2.9-7.6-2.9s-6.8,1.1-9.2,3.2h0Z"/>
        <path class="st0" d="M1670.7,438.4c5.5,0,10.3,1,14.5,3.1s7.4,5.1,9.7,8.9c2.3,3.8,3.4,8.3,3.4,13.5s-1.2,9.7-3.4,13.5c-2.3,3.9-5.5,6.9-9.7,9s-9,3.1-14.4,3.1h-21.6v32h-10.3v-83.2h32,0ZM1649.1,480.1h20.7c5.5,0,9.8-1.5,13.1-4.4,3.2-2.9,4.9-6.9,4.9-11.8s-1.6-8.8-4.8-11.7c-3.2-2.9-7.5-4.3-13-4.3h-20.8v32.2h0Z"/>
        <path class="st0" d="M1691.7,521.5l31.7-83.2h12.2l31.6,83.2h-11.1l-8.8-22.5h-36.2l-8.8,22.5h-10.7ZM1714.3,489.7h30.1l-15.1-40-15,40h0Z"/>
        <path class="st0" d="M1756.6,438.2h12.1l24.5,41.4,24.8-41.4h11.6l-31.4,52.5v30.8h-10.3v-30.8l-31.4-52.5h0Z"/>
        <path class="st0" d="M1870.7,438.4c5.5,0,10.3,1,14.5,3.1s7.4,5.1,9.7,8.9,3.4,8.3,3.4,13.5-1.6,10.8-4.8,15c-3.2,4.2-7.5,7.1-12.9,8.6l18.7,34h-11.6l-17.2-32h-21.3v32h-10.3v-83.2h31.8,0ZM1849.1,480.1h20.7c5.5,0,9.8-1.5,13.1-4.4,3.2-2.9,4.9-6.9,4.9-11.8s-1.6-8.7-4.9-11.6c-3.2-2.9-7.6-4.4-12.9-4.4h-20.8v32.2Z"/>
        <path class="st0" d="M1981.4,501.7c-3.4,6.4-8.1,11.5-14.1,15.1-6,3.6-12.9,5.5-20.6,5.5s-14.5-1.8-20.6-5.5-10.7-8.7-14.1-15.1c-3.4-6.4-5.1-13.7-5.1-21.7s1.7-15.3,5.1-21.7c3.4-6.4,8.1-11.5,14.1-15.1,6-3.6,12.9-5.5,20.6-5.5s14.5,1.8,20.6,5.5c6,3.6,10.7,8.7,14.1,15.1,3.4,6.4,5.1,13.7,5.1,21.7s-1.7,15.3-5.1,21.7h0ZM1921.4,496.9c2.4,5,5.9,8.8,10.3,11.6,4.4,2.8,9.4,4.2,15.2,4.2s10.8-1.4,15.2-4.2,7.8-6.7,10.3-11.6c2.4-5,3.7-10.6,3.7-16.9s-1.2-12-3.7-16.9c-2.5-5-5.9-8.8-10.3-11.6-4.4-2.8-9.4-4.2-15.2-4.2s-10.8,1.4-15.2,4.2-7.8,6.7-10.3,11.6c-2.5,5-3.7,10.6-3.7,16.9s1.2,12,3.7,16.9h0Z"/>
        <path class="st0" d="M1999.6,521.5v-83.2h10.3v73.7h37.9v9.5h-48.2Z"/>
        <path class="st0" d="M2058.9,521.5v-83.2h10.3v73.7h37.9v9.5h-48.2Z"/>
        <path class="st0" d="M2156.4,494.3c.4,5.6,2.6,10.1,6.8,13.5s9.4,5,15.7,5,10.3-1.2,13.8-3.7c3.5-2.5,5.3-6,5.3-10.4s-1-5.8-2.9-7.7-4.4-3.3-7.5-4.2-7.2-1.8-12.4-2.7c-8.3-1.4-14.9-3.8-19.8-7-4.9-3.2-7.4-8.5-7.4-15.8s1.2-8.8,3.6-12.4c2.4-3.6,5.7-6.4,10-8.4s9.2-3,14.8-3,11.1,1.1,15.6,3.2c4.5,2.1,8.1,5.1,10.7,9,2.6,3.8,4.1,8.3,4.4,13.2h-10.2c-.6-4.8-2.8-8.7-6.5-11.6-3.7-2.9-8.4-4.4-13.9-4.4s-9.9,1.2-13.2,3.6c-3.2,2.4-4.9,5.8-4.9,10.2s.9,5.6,2.9,7.4c1.9,1.8,4.4,3.1,7.4,4s7.1,1.8,12.4,2.7c8.3,1.4,15,3.8,20,7.1s7.5,8.6,7.5,15.9-1.2,9-3.7,12.7c-2.5,3.7-6,6.6-10.5,8.7-4.5,2.1-9.6,3.1-15.4,3.1s-12.2-1.2-17-3.5c-4.8-2.3-8.6-5.6-11.2-9.9-2.7-4.2-4.1-9.1-4.3-14.6h10.2Z"/>
        <path class="st0" d="M2209.5,438.2h12.1l24.5,41.4,24.8-41.4h11.6l-31.4,52.5v30.8h-10.3v-30.8l-31.4-52.5h0Z"/>
        <path class="st0" d="M2294.5,494.3c.4,5.6,2.6,10.1,6.8,13.5s9.4,5,15.7,5,10.3-1.2,13.8-3.7c3.5-2.5,5.3-6,5.3-10.4s-1-5.8-2.9-7.7-4.4-3.3-7.5-4.2-7.2-1.8-12.4-2.7c-8.3-1.4-14.9-3.8-19.8-7-4.9-3.2-7.4-8.5-7.4-15.8s1.2-8.8,3.6-12.4c2.4-3.6,5.7-6.4,10-8.4s9.2-3,14.8-3,11.1,1.1,15.6,3.2,8.1,5.1,10.7,9c2.6,3.8,4.1,8.3,4.4,13.2h-10.2c-.6-4.8-2.8-8.7-6.5-11.6-3.7-2.9-8.4-4.4-13.9-4.4s-9.9,1.2-13.2,3.6c-3.2,2.4-4.9,5.8-4.9,10.2s.9,5.6,2.9,7.4c1.9,1.8,4.4,3.1,7.4,4s7.1,1.8,12.4,2.7c8.3,1.4,15,3.8,20,7.1s7.5,8.6,7.5,15.9-1.2,9-3.7,12.7c-2.5,3.7-6,6.6-10.5,8.7-4.5,2.1-9.6,3.1-15.4,3.1s-12.2-1.2-17-3.5c-4.8-2.3-8.6-5.6-11.2-9.9-2.7-4.2-4.1-9.1-4.3-14.6h10.2Z"/>
        <path class="st0" d="M2350.6,438.4h64.3v9.5h-27v73.7h-10.3v-73.7h-27v-9.5Z"/>
        <path class="st0" d="M2425.9,438.4h53v9.5h-42.7v26.6h35.5v9.5h-35.5v28h44.2v9.5h-54.5v-83.2h0Z"/>
        <path class="st0" d="M2492.1,438.4h13.1l29.5,69,29.1-69h12.8v83.2h-10.1v-65.6l-27.6,65.6h-9.1l-27.6-65.6v65.6h-10.1v-83.2h0Z"/>
      </g>
      <g>
        <path class="st0" d="M915.1,33.7h94.3v138.4l123.6-138.4h114.3l-131.8,146.1,140,212.2h-113.8l-92.3-139.4-40,44.6v94.9h-94.3V33.7h0Z"/>
        <path class="st0" d="M1339.6,26.5c9.6,9.2,14.3,20.7,14.3,34.3s-4.8,25.1-14.3,34.3c-9.6,9.2-21.4,13.8-35.4,13.8s-25.8-4.6-35.4-13.8c-9.6-9.2-14.4-20.7-14.4-34.3s4.8-25.1,14.4-34.3c9.6-9.2,21.4-13.8,35.4-13.8s25.8,4.6,35.4,13.8ZM1259.6,127.5h88.7v264.5h-88.7V127.5h0Z"/>
        <path class="st0" d="M1585.9,140.9c18.3,10.9,32.6,26.7,42.8,47.2s15.4,44.3,15.4,71.3-5.1,50.3-15.4,71c-10.2,20.7-24.4,36.7-42.6,47.9-18.1,11.3-38.8,16.9-62,16.9s-58.3-12.5-77.4-37.4l-7.7,34.4h-77.9V33.2h88.7v123.6c18.8-21.5,43.6-32.3,74.3-32.3s43.5,5.5,61.8,16.4h0ZM1539.5,307c9.6-12,14.3-27.7,14.3-47.2s-4.8-35.2-14.3-47.2c-9.6-12-22.4-17.9-38.4-17.9s-29.2,6-38.4,17.9c-9.2,12-13.8,27.7-13.8,47.2s4.6,35.2,13.8,47.2c9.2,12,22.1,17.9,38.4,17.9s28.9-6,38.4-17.9h0Z"/>
        <path class="st0" d="M1723.8,378.5c-21.7-11.1-38.4-26.9-50.2-47.4-11.8-20.5-17.7-44.3-17.7-71.3s5.9-50.8,17.7-71.3c11.8-20.5,28.5-36.3,50.2-47.4,21.7-11.1,47.1-16.7,76.1-16.7s54.4,5.6,76.1,16.7c21.7,11.1,38.4,26.9,50.2,47.4,11.8,20.5,17.7,44.3,17.7,71.3s-5.9,50.8-17.7,71.3c-11.8,20.5-28.5,36.3-50.2,47.4-21.7,11.1-47.1,16.7-76.1,16.7s-54.4-5.5-76.1-16.7ZM1839.4,306.7c9.6-11.8,14.3-27.4,14.3-46.9s-4.8-35.1-14.3-46.9c-9.6-11.8-22.7-17.7-39.5-17.7s-29.9,5.9-39.5,17.7c-9.6,11.8-14.4,27.4-14.4,46.9s4.8,35.1,14.4,46.9c9.6,11.8,22.7,17.7,39.5,17.7s29.9-5.9,39.5-17.7Z"/>
        <path class="st0" d="M1951.2,33.2h94.3v137.9h119.5V33.2h94.3v358.9h-94.3v-141h-119.4v141h-94.3V33.2h0Z"/>
        <path class="st0" d="M2423.4,33.2c27.3,0,51.4,5.1,72.3,15.4,20.8,10.2,37.1,24.7,48.7,43.3,11.6,18.6,17.4,40.4,17.4,65.4s-4.8,41-14.4,58.4c-9.6,17.4-22.6,31.6-39,42.5l65.1,133.8h-103.6l-52.8-110.7h-50.8v110.7h-94.3V33.2h151.2ZM2366.5,204.4h49.2c15.4,0,27.5-4.2,36.4-12.6,8.9-8.4,13.3-19.9,13.3-34.6s-4.4-26.2-13.3-34.6c-8.9-8.4-21-12.6-36.4-12.6h-49.2v94.3h0Z"/>
      </g>
    </g>
  </g>
</svg>